<svg width="1349" height="1000" xmlns="http://www.w3.org/2000/svg"><g><path d="M-56,-110L-95,25L24,55Z" fill="#aa002a" stroke="#aa002a"/><path d="M-56,-110L24,55L98,-96Z" fill="#ab0429" stroke="#ab0429"/><path d="M-56,-110L98,-96L836,-131Z" fill="#bd3c3a" stroke="#bd3c3a"/><path d="M98,-96L24,55L167,-86Z" fill="#bb112a" stroke="#bb112a"/><path d="M98,-96L167,-86L584,-98Z" fill="#c23a39" stroke="#c23a39"/><path d="M98,-96L584,-98L836,-131Z" fill="#c26a57" stroke="#c26a57"/><path d="M167,-86L24,55L276,24Z" fill="#d01d2c" stroke="#d01d2c"/><path d="M167,-86L276,24L385,-22Z" fill="#d53839" stroke="#d53839"/><path d="M167,-86L385,-22L584,-98Z" fill="#cc5144" stroke="#cc5144"/><path d="M385,-22L276,24L425,112Z" fill="#eb5843" stroke="#eb5843"/><path d="M385,-22L425,112L480,101Z" fill="#f46e4c" stroke="#f46e4c"/><path d="M385,-22L480,101L584,-98Z" fill="#e06653" stroke="#e06653"/><path d="M584,-98L480,101L671,54Z" fill="#e2785c" stroke="#e2785c"/><path d="M584,-98L671,54L722,-79Z" fill="#c5775c" stroke="#c5775c"/><path d="M584,-98L722,-79L836,-131Z" fill="#aa7557" stroke="#aa7557"/><path d="M722,-79L671,54L857,28Z" fill="#c17253" stroke="#c17253"/><path d="M722,-79L857,28L836,-131Z" fill="#a56d4c" stroke="#a56d4c"/><path d="M836,-131L857,28L938,-90Z" fill="#936649" stroke="#936649"/><path d="M836,-131L938,-90L1078,-85Z" fill="#765e47" stroke="#765e47"/><path d="M836,-131L1078,-85L1365,-42Z" fill="#554a3d" stroke="#554a3d"/><path d="M938,-90L857,28L953,82Z" fill="#9e6449" stroke="#9e6449"/><path d="M938,-90L953,82L1078,-85Z" fill="#805945" stroke="#805945"/><path d="M1078,-85L953,82L1105,67Z" fill="#7f5741" stroke="#7f5741"/><path d="M1078,-85L1105,67L1310,-26Z" fill="#633d37" stroke="#633d37"/><path d="M1078,-85L1310,-26L1365,-42Z" fill="#542e2e" stroke="#542e2e"/><path d="M1310,-26L1105,67L1227,123Z" fill="#734433" stroke="#734433"/><path d="M1310,-26L1227,123L1367,165Z" fill="#7c3e2b" stroke="#7c3e2b"/><path d="M1310,-26L1367,165L1455,77Z" fill="#782c24" stroke="#782c24"/><path d="M1310,-26L1455,77L1365,-42Z" fill="#641823" stroke="#641823"/><path d="M-95,25L-104,407L-29,277Z" fill="#c44f41" stroke="#c44f41"/><path d="M-95,25L-29,277L24,55Z" fill="#cc242d" stroke="#cc242d"/><path d="M24,55L-29,277L114,210Z" fill="#d94138" stroke="#d94138"/><path d="M24,55L114,210L276,24Z" fill="#eb342b" stroke="#eb342b"/><path d="M276,24L114,210L280,232Z" fill="#f55d3d" stroke="#f55d3d"/><path d="M276,24L280,232L386,178Z" fill="#fb6e45" stroke="#fb6e45"/><path d="M276,24L386,178L425,112Z" fill="#fd6b44" stroke="#fd6b44"/><path d="M425,112L386,178L489,214Z" fill="#fe9258" stroke="#fe9258"/><path d="M425,112L489,214L480,101Z" fill="#fe8e58" stroke="#fe8e58"/><path d="M480,101L489,214L671,54Z" fill="#fe9661" stroke="#fe9661"/><path d="M671,54L489,214L729,226Z" fill="#f2a968" stroke="#f2a968"/><path d="M671,54L729,226L798,224Z" fill="#e1a961" stroke="#e1a961"/><path d="M671,54L798,224L857,28Z" fill="#d98d51" stroke="#d98d51"/><path d="M857,28L798,224L953,82Z" fill="#c5874d" stroke="#c5874d"/><path d="M953,82L798,224L994,199Z" fill="#ba9755" stroke="#ba9755"/><path d="M953,82L994,199L1105,67Z" fill="#9e7746" stroke="#9e7746"/><path d="M1105,67L994,199L1140,261Z" fill="#8d844c" stroke="#8d844c"/><path d="M1105,67L1140,261L1227,123Z" fill="#856d41" stroke="#856d41"/><path d="M1227,123L1140,261L1238,266Z" fill="#817e48" stroke="#817e48"/><path d="M1227,123L1238,266L1367,165Z" fill="#80653b" stroke="#80653b"/><path d="M1455,77L1367,165L1465,483Z" fill="#805f37" stroke="#805f37"/><path d="M-29,277L-104,407L122,353Z" fill="#d27358" stroke="#d27358"/><path d="M-29,277L122,353L114,210Z" fill="#df6d4a" stroke="#df6d4a"/><path d="M114,210L122,353L280,232Z" fill="#ef7b4b" stroke="#ef7b4b"/><path d="M280,232L122,353L186,407Z" fill="#f2955c" stroke="#f2955c"/><path d="M280,232L186,407L357,413Z" fill="#faab69" stroke="#faab69"/><path d="M280,232L357,413L386,178Z" fill="#fca55f" stroke="#fca55f"/><path d="M386,178L357,413L489,214Z" fill="#feb466" stroke="#feb466"/><path d="M489,214L357,413L488,424Z" fill="#fed27d" stroke="#fed27d"/><path d="M489,214L488,424L729,226Z" fill="#fbd57d" stroke="#fbd57d"/><path d="M729,226L488,424L720,425Z" fill="#f0ec8e" stroke="#f0ec8e"/><path d="M729,226L720,425L795,411Z" fill="#dee684" stroke="#dee684"/><path d="M729,226L795,411L798,224Z" fill="#d9d271" stroke="#d9d271"/><path d="M798,224L795,411L997,322Z" fill="#c6d372" stroke="#c6d372"/><path d="M798,224L997,322L994,199Z" fill="#b6b463" stroke="#b6b463"/><path d="M994,199L997,322L1140,261Z" fill="#97aa5d" stroke="#97aa5d"/><path d="M1140,261L997,322L1118,409Z" fill="#8cba69" stroke="#8cba69"/><path d="M1140,261L1118,409L1238,266Z" fill="#84a75d" stroke="#84a75d"/><path d="M1238,266L1118,409L1263,406Z" fill="#80ac65" stroke="#80ac65"/><path d="M1238,266L1263,406L1369,396Z" fill="#809c5d" stroke="#809c5d"/><path d="M1238,266L1369,396L1367,165Z" fill="#807f47" stroke="#807f47"/><path d="M1367,165L1369,396L1465,483Z" fill="#808650" stroke="#808650"/><path d="M-104,407L-111,1089L-87,633Z" fill="#796f4d" stroke="#796f4d"/><path d="M-104,407L-87,633L-81,571Z" fill="#b7805e" stroke="#b7805e"/><path d="M-104,407L-81,571L130,549Z" fill="#cc8064" stroke="#cc8064"/><path d="M-104,407L130,549L122,353Z" fill="#db8966" stroke="#db8966"/><path d="M122,353L130,549L186,407Z" fill="#ec9a68" stroke="#ec9a68"/><path d="M186,407L130,549L220,568Z" fill="#eda26a" stroke="#eda26a"/><path d="M186,407L220,568L327,519Z" fill="#f7b072" stroke="#f7b072"/><path d="M186,407L327,519L357,413Z" fill="#fabb77" stroke="#fabb77"/><path d="M357,413L327,519L488,424Z" fill="#fed382" stroke="#fed382"/><path d="M488,424L327,519L530,546Z" fill="#fedf8b" stroke="#fedf8b"/><path d="M488,424L530,546L679,512Z" fill="#fbf199" stroke="#fbf199"/><path d="M488,424L679,512L720,425Z" fill="#f2f599" stroke="#f2f599"/><path d="M720,425L679,512L792,490Z" fill="#e2f392" stroke="#e2f392"/><path d="M720,425L792,490L795,411Z" fill="#daf08d" stroke="#daf08d"/><path d="M795,411L792,490L994,560Z" fill="#c7e787" stroke="#c7e787"/><path d="M795,411L994,560L997,322Z" fill="#b6e085" stroke="#b6e085"/><path d="M997,322L994,560L1118,409Z" fill="#99d27e" stroke="#99d27e"/><path d="M1118,409L994,560L1165,516Z" fill="#8bc97a" stroke="#8bc97a"/><path d="M1118,409L1165,516L1263,406Z" fill="#83b972" stroke="#83b972"/><path d="M1263,406L1165,516L1311,518Z" fill="#80ae6c" stroke="#80ae6c"/><path d="M1263,406L1311,518L1369,396Z" fill="#80a265" stroke="#80a265"/><path d="M1369,396L1311,518L1465,483Z" fill="#80965f" stroke="#80965f"/><path d="M-81,571L-87,633L24,710Z" fill="#9e7a51" stroke="#9e7a51"/><path d="M-81,571L24,710L130,549Z" fill="#b68352" stroke="#b68352"/><path d="M130,549L24,710L215,681Z" fill="#bb8f51" stroke="#bb8f51"/><path d="M130,549L215,681L220,568Z" fill="#d4a458" stroke="#d4a458"/><path d="M220,568L215,681L330,616Z" fill="#d3b05e" stroke="#d3b05e"/><path d="M220,568L330,616L327,519Z" fill="#e7bc6a" stroke="#e7bc6a"/><path d="M327,519L330,616L530,546Z" fill="#edd577" stroke="#edd577"/><path d="M530,546L330,616L534,671Z" fill="#dee079" stroke="#dee079"/><path d="M530,546L534,671L679,512Z" fill="#e3f289" stroke="#e3f289"/><path d="M679,512L534,671L732,684Z" fill="#cbf284" stroke="#cbf284"/><path d="M679,512L732,684L792,490Z" fill="#cff285" stroke="#cff285"/><path d="M792,490L732,684L793,684Z" fill="#b6ec78" stroke="#b6ec78"/><path d="M792,490L793,684L953,668Z" fill="#a8e673" stroke="#a8e673"/><path d="M792,490L953,668L994,560Z" fill="#a6e177" stroke="#a6e177"/><path d="M994,560L953,668L1093,715Z" fill="#70ce6a" stroke="#70ce6a"/><path d="M994,560L1093,715L1165,516Z" fill="#71cb67" stroke="#71cb67"/><path d="M1165,516L1093,715L1237,654Z" fill="#5db85e" stroke="#5db85e"/><path d="M1165,516L1237,654L1311,518Z" fill="#6eb060" stroke="#6eb060"/><path d="M1311,518L1237,654L1441,659Z" fill="#5f9e50" stroke="#5f9e50"/><path d="M1311,518L1441,659L1465,483Z" fill="#719252" stroke="#719252"/><path d="M1465,483L1441,659L1448,790Z" fill="#528343" stroke="#528343"/><path d="M1465,483L1448,790L1462,1164Z" fill="#106033" stroke="#106033"/><path d="M-87,633L-111,1089L-90,1025Z" fill="#413a31" stroke="#413a31"/><path d="M-87,633L-90,1025L-62,772Z" fill="#545841" stroke="#545841"/><path d="M-87,633L-62,772L24,710Z" fill="#86704e" stroke="#86704e"/><path d="M24,710L-62,772L52,813Z" fill="#746347" stroke="#746347"/><path d="M24,710L52,813L215,681Z" fill="#927b4b" stroke="#927b4b"/><path d="M215,681L52,813L230,879Z" fill="#857c47" stroke="#857c47"/><path d="M215,681L230,879L429,784Z" fill="#949a56" stroke="#949a56"/><path d="M215,681L429,784L330,616Z" fill="#bbb563" stroke="#bbb563"/><path d="M330,616L429,784L534,671Z" fill="#bfce70" stroke="#bfce70"/><path d="M534,671L429,784L515,836Z" fill="#a0ca72" stroke="#a0ca72"/><path d="M534,671L515,836L702,802Z" fill="#98d479" stroke="#98d479"/><path d="M534,671L702,802L732,684Z" fill="#a4e37f" stroke="#a4e37f"/><path d="M732,684L702,802L793,684Z" fill="#92de76" stroke="#92de76"/><path d="M793,684L702,802L772,875Z" fill="#74cf6d" stroke="#74cf6d"/><path d="M793,684L772,875L1007,854Z" fill="#58c163" stroke="#58c163"/><path d="M793,684L1007,854L953,668Z" fill="#67ca69" stroke="#67ca69"/><path d="M953,668L1007,854L1093,715Z" fill="#48bb62" stroke="#48bb62"/><path d="M1093,715L1007,854L1158,777Z" fill="#26aa59" stroke="#26aa59"/><path d="M1093,715L1158,777L1237,654Z" fill="#3baa5a" stroke="#3baa5a"/><path d="M1237,654L1158,777L1264,805Z" fill="#299a51" stroke="#299a51"/><path d="M1237,654L1264,805L1441,659Z" fill="#3a914d" stroke="#3a914d"/><path d="M1441,659L1264,805L1448,790Z" fill="#277b41" stroke="#277b41"/><path d="M-62,772L-90,1025L52,813Z" fill="#524738" stroke="#524738"/><path d="M52,813L-90,1025L125,992Z" fill="#58372d" stroke="#58372d"/><path d="M52,813L125,992L174,950Z" fill="#684e31" stroke="#684e31"/><path d="M52,813L174,950L230,879Z" fill="#716039" stroke="#716039"/><path d="M230,879L174,950L424,949Z" fill="#7a6f3f" stroke="#7a6f3f"/><path d="M230,879L424,949L429,784Z" fill="#829351" stroke="#829351"/><path d="M429,784L424,949L515,836Z" fill="#86ab60" stroke="#86ab60"/><path d="M515,836L424,949L519,981Z" fill="#7f9e5a" stroke="#7f9e5a"/><path d="M515,836L519,981L636,988Z" fill="#7da561" stroke="#7da561"/><path d="M515,836L636,988L702,802Z" fill="#79ba6a" stroke="#79ba6a"/><path d="M702,802L636,988L772,875Z" fill="#69b764" stroke="#69b764"/><path d="M772,875L636,988L773,949Z" fill="#63a75a" stroke="#63a75a"/><path d="M772,875L773,949L947,1000Z" fill="#4e9d4f" stroke="#4e9d4f"/><path d="M772,875L947,1000L1007,854Z" fill="#3c9d52" stroke="#3c9d52"/><path d="M1007,854L947,1000L1178,968Z" fill="#178445" stroke="#178445"/><path d="M1007,854L1178,968L1158,777Z" fill="#108d4a" stroke="#108d4a"/><path d="M1158,777L1178,968L1216,957Z" fill="#03783f" stroke="#03783f"/><path d="M1158,777L1216,957L1264,805Z" fill="#0a8244" stroke="#0a8244"/><path d="M1264,805L1216,957L1418,972Z" fill="#006033" stroke="#006033"/><path d="M1264,805L1418,972L1448,790Z" fill="#086234" stroke="#086234"/><path d="M1448,790L1418,972L1462,1164Z" fill="#00341c" stroke="#00341c"/><path d="M-90,1025L-111,1089L116,1184Z" fill="#4d0516" stroke="#4d0516"/><path d="M-90,1025L116,1184L125,992Z" fill="#5c181b" stroke="#5c181b"/><path d="M125,992L116,1184L170,1124Z" fill="#6c1e16" stroke="#6c1e16"/><path d="M125,992L170,1124L174,950Z" fill="#6e3824" stroke="#6e3824"/><path d="M174,950L170,1124L332,1130Z" fill="#753b25" stroke="#753b25"/><path d="M174,950L332,1130L424,949Z" fill="#7c5f36" stroke="#7c5f36"/><path d="M424,949L332,1130L481,1091Z" fill="#7f6a3b" stroke="#7f6a3b"/><path d="M424,949L481,1091L519,981Z" fill="#7f844c" stroke="#7f844c"/><path d="M519,981L481,1091L636,988Z" fill="#7e8d54" stroke="#7e8d54"/><path d="M636,988L481,1091L715,1170Z" fill="#767e4b" stroke="#767e4b"/><path d="M636,988L715,1170L773,949Z" fill="#668d4e" stroke="#668d4e"/><path d="M773,949L715,1170L882,1107Z" fill="#577a3e" stroke="#577a3e"/><path d="M773,949L882,1107L947,1000Z" fill="#468342" stroke="#468342"/><path d="M947,1000L882,1107L953,1146Z" fill="#376a37" stroke="#376a37"/><path d="M947,1000L953,1146L1079,1141Z" fill="#265e31" stroke="#265e31"/><path d="M947,1000L1079,1141L1178,968Z" fill="#106535" stroke="#106535"/><path d="M1178,968L1079,1141L1273,1115Z" fill="#044726" stroke="#044726"/><path d="M1178,968L1273,1115L1216,957Z" fill="#00502a" stroke="#00502a"/><path d="M1216,957L1273,1115L1418,972Z" fill="#004223" stroke="#004223"/><path d="M1418,972L1273,1115L1462,1164Z" fill="#001f11" stroke="#001f11"/><path d="M116,1184L1462,1164L715,1170Z" fill="#5c703b" stroke="#5c703b"/><path d="M116,1184L715,1170L332,1130Z" fill="#7e532f" stroke="#7e532f"/><path d="M116,1184L332,1130L170,1124Z" fill="#73281b" stroke="#73281b"/><path d="M332,1130L715,1170L481,1091Z" fill="#7f6b41" stroke="#7f6b41"/><path d="M715,1170L1462,1164L953,1146Z" fill="#17512b" stroke="#17512b"/><path d="M715,1170L953,1146L882,1107Z" fill="#4a6934" stroke="#4a6934"/><path d="M953,1146L1462,1164L1079,1141Z" fill="#053d20" stroke="#053d20"/><path d="M1079,1141L1462,1164L1273,1115Z" fill="#002a16" stroke="#002a16"/></g></svg>